<?xml version="1.0" encoding="iso-8859-1"?>
<!-- Generator: Adobe Illustrator 19.0.0, SVG Export Plug-In . SVG Version: 6.00 Build 0)  -->
<svg version="1.1" id="Layer_1" xmlns="http://www.w3.org/2000/svg" xmlns:xlink="http://www.w3.org/1999/xlink" x="0px" y="0px"
	 viewBox="0 0 512 512" style="enable-background:new 0 0 512 512;" xml:space="preserve">
<g>
	<g>
		<path d="M340.313,327.618c-0.822-4.878-5.437-8.171-10.32-7.343c-16.975,2.861-36.417,4.311-57.786,4.311h-32.424
			c-74.898,0-122.447-17.29-141.326-51.389c-6.596-11.914-10.3-26.761-11.047-44.232h45.254c4.946,0,8.957-4.009,8.957-8.957
			s-4.01-8.957-8.957-8.957H78.326c-4.902,0-8.895,3.942-8.957,8.844c-0.307,24.495,4.206,45.347,13.415,61.977
			c22.272,40.229,75.094,60.626,156.998,60.626h32.424c22.364,0,42.808-1.535,60.764-4.561
			C337.847,337.117,341.135,332.496,340.313,327.618z"/>
	</g>
</g>
<g>
	<g>
		<path d="M442.624,219.876c-0.072-4.895-4.06-8.825-8.956-8.825H174.369c-4.946,0-8.957,4.009-8.957,8.957s4.01,8.958,8.957,8.958
			h250.229c-0.721,17.429-4.444,32.294-11.097,44.288c-8.824,15.907-24.177,28.3-45.63,36.832
			c-4.597,1.827-6.841,7.036-5.012,11.632c1.396,3.511,4.764,5.649,8.326,5.649c1.101,0,2.221-0.204,3.308-0.636
			c25.396-10.101,43.791-25.168,54.674-44.786C438.456,265.201,442.983,244.32,442.624,219.876z"/>
	</g>
</g>
<g>
	<g>
		<path d="M477.777,205.018c-2.162-28.899-9.56-61.098-21.992-95.703C434.76,50.791,406.935,6.077,405.762,4.204
			C404.123,1.588,401.256,0,398.171,0H113.83c-3.085,0-5.953,1.587-7.591,4.204c-1.174,1.874-28.998,46.587-50.024,105.114
			c-12.432,34.604-19.83,66.803-21.993,95.702c-2.759,36.886,3.036,68.582,17.223,94.208c27.619,49.885,86.255,76.38,174.35,78.885
			v39.941c0,18.493-15.046,33.539-33.539,33.539h-11.965c-28.371,0-51.452,23.081-51.452,51.452c0,4.948,4.01,8.957,8.957,8.957
			h236.406c4.946,0,8.957-4.009,8.957-8.957c0-28.371-23.081-51.452-51.452-51.452h-11.965c-18.493,0-33.539-15.046-33.539-33.539
			v-39.941c88.095-2.504,146.731-28.999,174.35-78.886C474.741,273.6,480.536,241.904,477.777,205.018z M319.744,469.506h11.965
			c15.392,0,28.396,10.423,32.324,24.582H147.968c3.928-14.159,16.932-24.582,32.324-24.582h11.965
			c28.371,0,51.452-23.081,51.452-51.452v-39.727h24.582v39.727C268.292,446.424,291.372,469.506,319.744,469.506z M444.871,290.571
			c-25.671,46.344-83.762,69.842-172.659,69.842h-32.424c-88.896,0-146.987-23.499-172.658-69.842
			C16.7,199.528,102.77,45.289,118.897,17.913h274.207C409.231,45.289,495.301,199.528,444.871,290.571z"/>
	</g>
</g>
<g>
</g>
<g>
</g>
<g>
</g>
<g>
</g>
<g>
</g>
<g>
</g>
<g>
</g>
<g>
</g>
<g>
</g>
<g>
</g>
<g>
</g>
<g>
</g>
<g>
</g>
<g>
</g>
<g>
</g>
</svg>
