<svg id="Capa_1" enable-background="new 0 0 512 512" height="512" viewBox="0 0 512 512" width="512" xmlns="http://www.w3.org/2000/svg"><g><g><circle cx="366.42" cy="327.478" fill="rgb(0,0,0)" r="18.835"/></g><g><circle cx="121.844" cy="438.431" fill="rgb(0,0,0)" r="18.835"/></g><g><path d="m225.686 211.763c-.425-10.761-3.456-21.241-7.854-31.025-7.69-18.201-15.379-36.402-23.068-54.603-11.101-26.545-15.113-53.993-16.52-67.995 7.409-2.458 12.263-9.95 11.467-17.719l-2.185-21.302c-1.118-10.899-10.224-19.119-21.181-19.119h-65.346c-11.057 0-20.382 8.636-21.229 19.66l-1.63 21.188c-.565 7.339 3.885 14.37 10.747 17.018-1.358 14.149-5.325 42.328-16.52 68.15-7.765 18.118-14.995 36.609-23.883 54.22-5.324 10.555-8.151 22.408-8.151 34.233v89.62c0 11.327 3.071 21.456 6.834 32.044 11.353 31.951 13.043 63.584.531 95.279-3.787 9.597-7.365 18.662-7.365 30.048v18.91c0 14.165 11.16 31.729 26.741 31.63h132.028c15.511-.203 26.644-17.188 26.644-31.55v-18.989c0-11.385-3.577-20.449-7.365-30.046-13.141-33.297-10.542-66.881 2.308-100.055 3.351-8.73 4.994-17.936 5.058-27.271-.001.001-.025-91.42-.061-92.326zm-160.73-19.556c4.998-11.555 10.586-22.848 15.589-34.407h105.884c5.087 12.04 10.602 23.961 15.231 36.181h-137.41c.235-.592.47-1.183.706-1.774zm-4.586 113.453c-.012-.44-.028-.879-.03-1.32 0-.083-.004-.167-.004-.25v-89.62c0-.025 0-.05 0-.075 0-.138.011-.276.012-.414h145.38c.002.163.015.326.015.489v89.62c0 .525-.021 1.047-.035 1.57zm46.37-263.616c-1.884-1.947-4.477-3.046-7.186-3.046h-1.214l1.37-17.805c.052-.669.617-1.193 1.288-1.193h65.346c.665 0 1.218.499 1.285 1.161l1.83 17.837h-1.934c-5.562 0-10.174 4.761-9.995 10.321.057 1.753 1.579 43.398 18.795 84.566l1.654 3.914h-88.877c.892-2.109 1.481-3.507 1.639-3.883 17.153-39.603 18.749-82.772 18.809-84.592.088-2.706-.926-5.334-2.81-7.28zm-39.666 449.956c-3.732 0-6.74-9.29-6.74-11.631v-18.908c0-7.581 2.634-14.254 5.969-22.703 14.836-37.592 12.516-75.492-1.676-113.098h136.825c-7.496 19.852-12.419 41.197-12.419 62.49 0 23.391 5.955 38.479 10.741 50.604 3.335 8.449 5.969 15.123 5.969 22.705v18.99c0 2.379-2.885 11.55-6.641 11.55h-132.028z"/><path d="m471.592 238.839c-.778-20.615-7.595-35.738-13.374-44.979-2.065-3.302-3.157-7.194-3.157-11.26v-34.806c0-5.522-4.478-10-10-10h-37.043c-5.522 0-10 4.478-10 10s4.478 10 10 10h27.043v24.806c0 7.821 2.145 15.383 6.201 21.865 2.857 4.57 7.13 12.948 9.198 24.534h-175.766c2.067-11.586 6.34-19.964 9.198-24.533 4.057-6.486 6.201-14.047 6.201-21.866v-24.806h29.963c5.522 0 10-4.478 10-10s-4.478-10-10-10h-39.963c-5.522 0-10 4.478-10 10v34.806c0 4.063-1.092 7.958-3.158 11.262-19.15 30.621-16.869 71.192.92 101.87 3.929 6.772 7.093 13.587 9.404 20.256 6.981 20.126 15.304 53.437 15.304 97.832v72.71c0 13.839 11.629 25.47 25.47 25.47h89.088.002c14.045 0 25.471-11.426 25.471-25.47v-72.71c0-44.395 8.321-77.705 15.302-97.832 2.313-6.669 5.479-13.484 9.406-20.257 9.913-17.096 15.058-37.134 14.29-56.892zm-31.598 46.861c-3.927 8.216-8.268 15.862-10.996 23.73-7.486 21.578-16.41 57.204-16.41 104.389v35.131c-1.677 1.633-6.463 4.83-18.235 4.83h-63.55c-11.78 0-16.564-3.201-18.238-4.833v-35.128c0-47.181-8.923-82.809-16.408-104.389-2.729-7.868-6.43-15.853-10.998-23.73-6.469-11.153-10.423-23.85-11.418-36.7h177.672c-.033.577.194 12.403-11.419 36.7zm-121.962 206.3c-.377 0-.745-.038-1.101-.111-2.489-.511-4.367-2.719-4.367-5.356v-15.261c4.841 1.523 10.833 2.509 18.238 2.509h63.55c7.404 0 13.396-.986 18.235-2.508v15.26c0 3.015-2.453 5.468-5.468 5.468h-89.087z"/><path d="m366.419 298.644c-15.899 0-28.834 12.936-28.834 28.835s12.935 28.835 28.834 28.835 28.835-12.936 28.835-28.835-12.935-28.835-28.835-28.835zm0 37.669c-4.871 0-8.834-3.963-8.834-8.835s3.963-8.835 8.834-8.835c4.872 0 8.835 3.963 8.835 8.835s-3.963 8.835-8.835 8.835z"/><path d="m121.845 409.597c-15.899 0-28.835 12.935-28.835 28.834s12.936 28.835 28.835 28.835 28.834-12.936 28.834-28.835-12.935-28.834-28.834-28.834zm0 37.669c-4.872 0-8.835-3.963-8.835-8.835 0-4.871 3.963-8.834 8.835-8.834 4.871 0 8.834 3.963 8.834 8.834 0 4.872-3.963 8.835-8.834 8.835z"/><path d="m355.952 393.029c-1.641-3.936-5.712-6.461-9.971-6.144-4.342.324-8.055 3.529-9.014 7.775-1.971 8.721 8.185 15.506 15.506 10.367 3.771-2.647 5.252-7.739 3.479-11.998z"/><path d="m160.813 361.42c-1.637-3.932-5.719-6.462-9.972-6.145-4.173.311-7.772 3.276-8.894 7.303-2.503 8.984 8.109 16.198 15.58 10.701 3.653-2.688 5-7.681 3.286-11.859z"/><path d="m417.653 270.479c-1.548-3.713-5.25-6.164-9.269-6.166-4.433-.002-8.408 3.073-9.597 7.329-2.443 8.745 7.66 15.967 15.184 10.978 3.942-2.612 5.467-7.782 3.682-12.141z"/><path d="m355.233 151.62c1.613 3.932 5.728 6.476 9.968 6.147 4.35-.337 8.053-3.52 9.017-7.779 1.979-8.739-8.188-15.472-15.508-10.358-3.784 2.644-5.25 7.73-3.477 11.99z"/></g></g></svg>