<?xml version="1.0" encoding="iso-8859-1"?>
<!-- Generator: Adobe Illustrator 19.0.0, SVG Export Plug-In . SVG Version: 6.00 Build 0)  -->
<svg version="1.1" id="Capa_1" xmlns="http://www.w3.org/2000/svg" xmlns:xlink="http://www.w3.org/1999/xlink" x="0px" y="0px"
	 viewBox="0 0 512 512" style="enable-background:new 0 0 512 512;" xml:space="preserve">
<g>
	<g>
		<path d="M400.577,111.684h-8.832h-55.721h-0.445h-66.631c-4.143,0-7.502,3.359-7.502,7.502c0,4.143,3.359,7.502,7.502,7.502
			h59.129v65.775H113.924v-65.775h44.844h28.006h29.858c4.143,0,7.502-3.359,7.502-7.502c0-4.143-3.359-7.502-7.502-7.502h-22.357
			V22.506C194.276,10.096,184.18,0,171.77,0h-60.347C104.528,0,98.92,5.608,98.92,12.503v18.713c0,6.895,5.608,12.503,12.503,12.503
			h39.843v67.965h-39.843c-6.895,0-12.503,5.608-12.503,12.503v75.778v223.754v75.779c0,6.895,5.608,12.503,12.503,12.503h38.192
			c4.143,0,7.502-3.359,7.502-7.502c0-4.143-3.359-7.502-7.502-7.502h-35.692V431.22h214.153v65.776H201.629
			c-4.143,0-7.502,3.359-7.502,7.502c0,4.143,3.359,7.502,7.502,7.502h133.95h0.445h64.553c6.895,0,12.503-5.608,12.503-12.503
			v-75.779V199.966v-75.778C413.08,117.293,407.472,111.684,400.577,111.684z M113.924,28.715V15.004h57.846
			c4.137,0,7.502,3.365,7.502,7.502v89.178H166.27V41.218c0-6.895-5.608-12.503-12.503-12.503H113.924z M328.078,416.217H113.925
			v-0.001V207.467h214.153V416.217z M384.828,126.687l-14.248,11.852l-14.25-11.852H384.828z M343.527,135.554l22.256,18.512
			c1.39,1.156,3.094,1.734,4.797,1.734c1.703,0,3.407-0.578,4.797-1.734l22.7-18.882v57.28h-54.549V135.554z M343.526,207.467h54.55
			v208.749h-54.55V207.467z M398.077,496.996h-54.551V431.22h54.551V496.996z"/>
	</g>
</g>
<g>
	<g>
		<path d="M282.596,276.953c20.898-13.905,19.549-37.044,19.482-38.024c-0.187-2.7-1.813-5.09-4.257-6.255
			c-0.886-0.422-21.915-10.167-42.519,4.173c-9.249,6.154-14.138,14.112-16.712,21.159v-14.263c0-4.143-3.359-7.502-7.502-7.502
			c-4.143,0-7.502,3.359-7.502,7.502v18.985c-16.233,1.173-31.268,8.181-42.663,19.98c-12.254,12.689-18.834,29.39-18.527,47.029
			c0.307,17.638,7.465,34.099,20.154,46.354c12.405,11.981,28.646,18.538,45.846,18.538c0.393,0,0.787-0.003,1.181-0.01
			c17.637-0.308,34.099-7.465,46.355-20.154c12.254-12.689,18.834-29.391,18.527-47.029c-0.315-18.06-7.894-34.311-19.891-46.035
			C277.221,280.277,279.912,278.82,282.596,276.953z M263.666,249.303c0.052-0.034,0.103-0.069,0.154-0.104
			c8.772-6.13,17.699-5.585,22.944-4.423c-0.842,5.305-3.612,13.81-12.532,19.721c-0.052,0.034-0.103,0.069-0.154,0.104
			c-5.49,3.837-11.043,5.06-15.71,5.153c-2.198-1.122-4.468-2.118-6.797-2.993C252.802,261.527,255.906,254.445,263.666,249.303z
			 M279.458,327.696c0.491,28.139-22.002,51.43-50.14,51.92c-13.615,0.245-26.538-4.847-36.344-14.318
			c-9.806-9.47-15.337-22.193-15.575-35.824c-0.237-13.63,4.847-26.538,14.318-36.344c9.47-9.806,22.193-15.337,35.823-15.575
			c0.302-0.005,0.601-0.008,0.902-0.008C256.172,277.548,278.973,299.86,279.458,327.696z"/>
	</g>
</g>
<g>
</g>
<g>
</g>
<g>
</g>
<g>
</g>
<g>
</g>
<g>
</g>
<g>
</g>
<g>
</g>
<g>
</g>
<g>
</g>
<g>
</g>
<g>
</g>
<g>
</g>
<g>
</g>
<g>
</g>
</svg>
